<svg width="400" height="100" viewBox="0 0 400 100" fill="none" xmlns="http://www.w3.org/2000/svg">
<path d="M92.9091 47.0455L84.0455 47.5909C83.8939 46.8333 83.5682 46.1515 83.0682 45.5455C82.5682 44.9242 81.9091 44.4318 81.0909 44.0682C80.2879 43.6894 79.3258 43.5 78.2045 43.5C76.7045 43.5 75.4394 43.8182 74.4091 44.4545C73.3788 45.0758 72.8636 45.9091 72.8636 46.9545C72.8636 47.7879 73.197 48.4924 73.8636 49.0682C74.5303 49.6439 75.6742 50.1061 77.2955 50.4545L83.6136 51.7273C87.0076 52.4242 89.5379 53.5455 91.2045 55.0909C92.8712 56.6364 93.7045 58.6667 93.7045 61.1818C93.7045 63.4697 93.0303 65.4773 91.6818 67.2045C90.3485 68.9318 88.5152 70.2803 86.1818 71.25C83.8636 72.2045 81.1894 72.6818 78.1591 72.6818C73.5379 72.6818 69.8561 71.7197 67.1136 69.7955C64.3864 67.8561 62.7879 65.2197 62.3182 61.8864L71.8409 61.3864C72.1288 62.7955 72.8258 63.8712 73.9318 64.6136C75.0379 65.3409 76.4545 65.7045 78.1818 65.7045C79.8788 65.7045 81.2424 65.3788 82.2727 64.7273C83.3182 64.0606 83.8485 63.2045 83.8636 62.1591C83.8485 61.2803 83.4773 60.5606 82.75 60C82.0227 59.4242 80.9015 58.9848 79.3864 58.6818L73.3409 57.4773C69.9318 56.7955 67.3939 55.6136 65.7273 53.9318C64.0758 52.25 63.25 50.1061 63.25 47.5C63.25 45.2576 63.8561 43.3258 65.0682 41.7045C66.2955 40.0833 68.0152 38.8333 70.2273 37.9545C72.4545 37.0758 75.0606 36.6364 78.0455 36.6364C82.4545 36.6364 85.9242 37.5682 88.4545 39.4318C91 41.2955 92.4848 43.8333 92.9091 47.0455ZM118.574 37.0909V44.3636H97.0284V37.0909H118.574ZM101.96 72V34.5682C101.96 32.0379 102.453 29.9394 103.438 28.2727C104.438 26.6061 105.801 25.3561 107.528 24.5227C109.256 23.6894 111.218 23.2727 113.415 23.2727C114.9 23.2727 116.256 23.3864 117.483 23.6136C118.725 23.8409 119.65 24.0455 120.256 24.2273L118.528 31.5C118.15 31.3788 117.68 31.2651 117.119 31.1591C116.574 31.053 116.013 31 115.438 31C114.013 31 113.021 31.3333 112.46 32C111.9 32.6515 111.619 33.5682 111.619 34.75V72H101.96ZM124.489 72V37.0909H134.17V72H124.489ZM129.352 32.5909C127.913 32.5909 126.678 32.1136 125.648 31.1591C124.633 30.1894 124.125 29.0303 124.125 27.6818C124.125 26.3485 124.633 25.2045 125.648 24.25C126.678 23.2803 127.913 22.7955 129.352 22.7955C130.792 22.7955 132.019 23.2803 133.034 24.25C134.064 25.2045 134.58 26.3485 134.58 27.6818C134.58 29.0303 134.064 30.1894 133.034 31.1591C132.019 32.1136 130.792 32.5909 129.352 32.5909ZM151.608 51.8182V72H141.926V37.0909H151.153V43.25H151.562C152.335 41.2197 153.631 39.6136 155.449 38.4318C157.267 37.2348 159.472 36.6364 162.062 36.6364C164.487 36.6364 166.6 37.1667 168.403 38.2273C170.206 39.2879 171.608 40.803 172.608 42.7727C173.608 44.7273 174.108 47.0606 174.108 49.7727V72H164.426V51.5C164.441 49.3636 163.896 47.697 162.79 46.5C161.684 45.2879 160.161 44.6818 158.222 44.6818C156.919 44.6818 155.767 44.9621 154.767 45.5227C153.782 46.0833 153.009 46.9015 152.449 47.9773C151.903 49.0379 151.623 50.3182 151.608 51.8182ZM189.83 37.0909L196.239 49.2955L202.807 37.0909H212.739L202.625 54.5455L213.011 72H203.125L196.239 59.9318L189.466 72H179.466L189.83 54.5455L179.83 37.0909H189.83Z" fill="black"/>
<rect x="225" y="10" width="120" height="80" rx="40" fill="#008F4A"/>
<path d="M287.818 50.7273C287.818 55.803 286.856 60.1212 284.932 63.6818C283.023 67.2424 280.417 69.9621 277.114 71.8409C273.826 73.7045 270.129 74.6364 266.023 74.6364C261.886 74.6364 258.174 73.697 254.886 71.8182C251.598 69.9394 249 67.2197 247.091 63.6591C245.182 60.0985 244.227 55.7879 244.227 50.7273C244.227 45.6515 245.182 41.3333 247.091 37.7727C249 34.2121 251.598 31.5 254.886 29.6364C258.174 27.7576 261.886 26.8182 266.023 26.8182C270.129 26.8182 273.826 27.7576 277.114 29.6364C280.417 31.5 283.023 34.2121 284.932 37.7727C286.856 41.3333 287.818 45.6515 287.818 50.7273ZM277.841 50.7273C277.841 47.4394 277.348 44.6667 276.364 42.4091C275.394 40.1515 274.023 38.4394 272.25 37.2727C270.477 36.1061 268.402 35.5227 266.023 35.5227C263.644 35.5227 261.568 36.1061 259.795 37.2727C258.023 38.4394 256.644 40.1515 255.659 42.4091C254.689 44.6667 254.205 47.4394 254.205 50.7273C254.205 54.0152 254.689 56.7879 255.659 59.0455C256.644 61.303 258.023 63.0152 259.795 64.1818C261.568 65.3485 263.644 65.9318 266.023 65.9318C268.402 65.9318 270.477 65.3485 272.25 64.1818C274.023 63.0152 275.394 61.303 276.364 59.0455C277.348 56.7879 277.841 54.0152 277.841 50.7273ZM313.744 27.4545H323.472V59.9091C323.472 62.9091 322.797 65.5152 321.449 67.7273C320.116 69.9394 318.259 71.6439 315.881 72.8409C313.502 74.0379 310.737 74.6364 307.585 74.6364C304.782 74.6364 302.237 74.1439 299.949 73.1591C297.676 72.1591 295.873 70.6439 294.54 68.6136C293.206 66.5682 292.547 64 292.562 60.9091H302.358C302.388 62.1364 302.638 63.1894 303.108 64.0682C303.593 64.9318 304.252 65.5985 305.085 66.0682C305.934 66.5227 306.934 66.75 308.085 66.75C309.297 66.75 310.32 66.4924 311.153 65.9773C312.002 65.447 312.646 64.6742 313.085 63.6591C313.525 62.6439 313.744 61.3939 313.744 59.9091V27.4545Z" fill="white"/>
</svg>
