<svg width="400" height="400" viewBox="0 0 400 400" fill="none" xmlns="http://www.w3.org/2000/svg">
<rect width="400" height="400" fill="white"/>
<path d="M89.9091 197.045L81.0455 197.591C80.8939 196.833 80.5682 196.152 80.0682 195.545C79.5682 194.924 78.9091 194.432 78.0909 194.068C77.2879 193.689 76.3258 193.5 75.2045 193.5C73.7045 193.5 72.4394 193.818 71.4091 194.455C70.3788 195.076 69.8636 195.909 69.8636 196.955C69.8636 197.788 70.197 198.492 70.8636 199.068C71.5303 199.644 72.6742 200.106 74.2955 200.455L80.6136 201.727C84.0076 202.424 86.5379 203.545 88.2045 205.091C89.8712 206.636 90.7045 208.667 90.7045 211.182C90.7045 213.47 90.0303 215.477 88.6818 217.205C87.3485 218.932 85.5152 220.28 83.1818 221.25C80.8636 222.205 78.1894 222.682 75.1591 222.682C70.5379 222.682 66.8561 221.72 64.1136 219.795C61.3864 217.856 59.7879 215.22 59.3182 211.886L68.8409 211.386C69.1288 212.795 69.8258 213.871 70.9318 214.614C72.0379 215.341 73.4545 215.705 75.1818 215.705C76.8788 215.705 78.2424 215.379 79.2727 214.727C80.3182 214.061 80.8485 213.205 80.8636 212.159C80.8485 211.28 80.4773 210.561 79.75 210C79.0227 209.424 77.9015 208.985 76.3864 208.682L70.3409 207.477C66.9318 206.795 64.3939 205.614 62.7273 203.932C61.0758 202.25 60.25 200.106 60.25 197.5C60.25 195.258 60.8561 193.326 62.0682 191.705C63.2955 190.083 65.0152 188.833 67.2273 187.955C69.4545 187.076 72.0606 186.636 75.0455 186.636C79.4545 186.636 82.9242 187.568 85.4545 189.432C88 191.295 89.4848 193.833 89.9091 197.045ZM115.574 187.091V194.364H94.0284V187.091H115.574ZM98.9602 222V184.568C98.9602 182.038 99.4527 179.939 100.438 178.273C101.438 176.606 102.801 175.356 104.528 174.523C106.256 173.689 108.218 173.273 110.415 173.273C111.9 173.273 113.256 173.386 114.483 173.614C115.725 173.841 116.65 174.045 117.256 174.227L115.528 181.5C115.15 181.379 114.68 181.265 114.119 181.159C113.574 181.053 113.013 181 112.438 181C111.013 181 110.021 181.333 109.46 182C108.9 182.652 108.619 183.568 108.619 184.75V222H98.9602ZM121.489 222V187.091H131.17V222H121.489ZM126.352 182.591C124.913 182.591 123.678 182.114 122.648 181.159C121.633 180.189 121.125 179.03 121.125 177.682C121.125 176.348 121.633 175.205 122.648 174.25C123.678 173.28 124.913 172.795 126.352 172.795C127.792 172.795 129.019 173.28 130.034 174.25C131.064 175.205 131.58 176.348 131.58 177.682C131.58 179.03 131.064 180.189 130.034 181.159C129.019 182.114 127.792 182.591 126.352 182.591ZM148.608 201.818V222H138.926V187.091H148.153V193.25H148.562C149.335 191.22 150.631 189.614 152.449 188.432C154.267 187.235 156.472 186.636 159.062 186.636C161.487 186.636 163.6 187.167 165.403 188.227C167.206 189.288 168.608 190.803 169.608 192.773C170.608 194.727 171.108 197.061 171.108 199.773V222H161.426V201.5C161.441 199.364 160.896 197.697 159.79 196.5C158.684 195.288 157.161 194.682 155.222 194.682C153.919 194.682 152.767 194.962 151.767 195.523C150.782 196.083 150.009 196.902 149.449 197.977C148.903 199.038 148.623 200.318 148.608 201.818ZM186.83 187.091L193.239 199.295L199.807 187.091H209.739L199.625 204.545L210.011 222H200.125L193.239 209.932L186.466 222H176.466L186.83 204.545L176.83 187.091H186.83Z" fill="black"/>
<rect x="222" y="160" width="120" height="80" rx="40" fill="#008F4A"/>
<path d="M284.818 200.727C284.818 205.803 283.856 210.121 281.932 213.682C280.023 217.242 277.417 219.962 274.114 221.841C270.826 223.705 267.129 224.636 263.023 224.636C258.886 224.636 255.174 223.697 251.886 221.818C248.598 219.939 246 217.22 244.091 213.659C242.182 210.098 241.227 205.788 241.227 200.727C241.227 195.652 242.182 191.333 244.091 187.773C246 184.212 248.598 181.5 251.886 179.636C255.174 177.758 258.886 176.818 263.023 176.818C267.129 176.818 270.826 177.758 274.114 179.636C277.417 181.5 280.023 184.212 281.932 187.773C283.856 191.333 284.818 195.652 284.818 200.727ZM274.841 200.727C274.841 197.439 274.348 194.667 273.364 192.409C272.394 190.152 271.023 188.439 269.25 187.273C267.477 186.106 265.402 185.523 263.023 185.523C260.644 185.523 258.568 186.106 256.795 187.273C255.023 188.439 253.644 190.152 252.659 192.409C251.689 194.667 251.205 197.439 251.205 200.727C251.205 204.015 251.689 206.788 252.659 209.045C253.644 211.303 255.023 213.015 256.795 214.182C258.568 215.348 260.644 215.932 263.023 215.932C265.402 215.932 267.477 215.348 269.25 214.182C271.023 213.015 272.394 211.303 273.364 209.045C274.348 206.788 274.841 204.015 274.841 200.727ZM310.744 177.455H320.472V209.909C320.472 212.909 319.797 215.515 318.449 217.727C317.116 219.939 315.259 221.644 312.881 222.841C310.502 224.038 307.737 224.636 304.585 224.636C301.782 224.636 299.237 224.144 296.949 223.159C294.676 222.159 292.873 220.644 291.54 218.614C290.206 216.568 289.547 214 289.562 210.909H299.358C299.388 212.136 299.638 213.189 300.108 214.068C300.593 214.932 301.252 215.598 302.085 216.068C302.934 216.523 303.934 216.75 305.085 216.75C306.297 216.75 307.32 216.492 308.153 215.977C309.002 215.447 309.646 214.674 310.085 213.659C310.525 212.644 310.744 211.394 310.744 209.909V177.455Z" fill="white"/>
</svg>
